<svg xmlns="http://www.w3.org/2000/svg" viewBox="0 0 128 128"><defs><style>.cls-1{isolation:isolate;}.cls-2{mix-blend-mode:multiply;}.cls-3{fill:#d4dfea;}.cls-4{fill:#489de3;}.cls-5{fill:#093357;}</style></defs><title>mountains</title><g class="cls-1"><g id="icons" class="cls-2"><path class="cls-3" d="M40,62.85l5.08-6.77a.5.5,0,0,1,.82,0L50,62.7a.5.5,0,0,0,.88-.06l6.06-13.86a.5.5,0,0,1,.94.06l1.25,4.37a.5.5,0,0,0,.93.07L64.95,42.7a.5.5,0,0,1,.93.07l2.3,7.65a.5.5,0,0,0,.91.11L74,42.35,65.84,29.47A1,1,0,0,0,65,29a1,1,0,0,0-.85.49L49.62,53.69,38.45,48.11a1,1,0,0,0-1.34.44l-2.57,5,4.6,9.2A.5.5,0,0,0,40,62.85Z"/><path class="cls-4" d="M23.09,98.41a1,1,0,0,1,.17-1.08l26-29a1,1,0,0,1,1.15-.25l8.28,3.68L71.21,55.39a1,1,0,0,1,1.54-.06L83.82,67.61l3.58-4L74,42.35l-4.91,8.18a.5.5,0,0,1-.91-.11l-2.3-7.65a.5.5,0,0,0-.93-.07L60.06,53.28a.5.5,0,0,1-.93-.07l-1.25-4.37a.5.5,0,0,0-.94-.06L50.88,62.63a.5.5,0,0,1-.88.06l-4.11-6.58a.5.5,0,0,0-.82,0L40,62.85a.5.5,0,0,1-.85-.08l-4.6-9.2-22.43,44A1,1,0,0,0,13,99H24A1,1,0,0,1,23.09,98.41Z"/><path class="cls-5" d="M115.84,97.46l-24-37a1,1,0,0,0-1.59-.12l-6.43,7.27L72.74,55.33a1,1,0,0,0-1.54.06L58.69,71.77l-8.28-3.68a1,1,0,0,0-1.15.25l-26,29A1,1,0,0,0,24,99h91a1,1,0,0,0,.84-1.54Z"/></g></g></svg>