<?xml version="1.0" encoding="UTF-8"?>
<svg xmlns="http://www.w3.org/2000/svg" xmlns:xlink="http://www.w3.org/1999/xlink" width="64pt" height="64pt" viewBox="0 0 64 64" version="1.1">
<g id="surface1">
<path style=" stroke:none;fill-rule:nonzero;fill:rgb(83.137255%,87.45098%,91.764706%);fill-opacity:1;" d="M 20 31.425781 L 22.539062 28.039062 C 22.585938 27.972656 22.664062 27.933594 22.746094 27.933594 C 22.828125 27.933594 22.902344 27.972656 22.949219 28.039062 L 25 31.351562 C 25.050781 31.429688 25.136719 31.472656 25.230469 31.46875 C 25.320312 31.460938 25.402344 31.402344 25.441406 31.320312 L 28.46875 24.390625 C 28.511719 24.292969 28.609375 24.234375 28.714844 24.238281 C 28.820312 24.246094 28.910156 24.320312 28.941406 24.421875 L 29.566406 26.605469 C 29.59375 26.703125 29.683594 26.773438 29.785156 26.78125 C 29.886719 26.789062 29.984375 26.734375 30.03125 26.640625 L 32.476562 21.351562 C 32.519531 21.257812 32.617188 21.199219 32.71875 21.207031 C 32.824219 21.214844 32.910156 21.285156 32.941406 21.386719 L 34.089844 25.210938 C 34.117188 25.304688 34.199219 25.375 34.300781 25.386719 C 34.398438 25.398438 34.496094 25.351562 34.546875 25.265625 L 37 21.175781 L 32.921875 14.734375 C 32.828125 14.589844 32.671875 14.5 32.5 14.5 C 32.324219 14.5 32.164062 14.59375 32.074219 14.746094 L 24.808594 26.84375 L 19.226562 24.054688 C 18.980469 23.929688 18.679688 24.03125 18.554688 24.273438 L 17.269531 26.773438 L 19.570312 31.375 C 19.605469 31.457031 19.683594 31.515625 19.769531 31.523438 C 19.859375 31.535156 19.945312 31.496094 20 31.425781 Z M 20 31.425781 "/>
<path style=" stroke:none;fill-rule:nonzero;fill:rgb(28.235294%,61.568627%,89.019608%);fill-opacity:1;" d="M 11.546875 49.203125 C 11.464844 49.023438 11.496094 48.8125 11.628906 48.664062 L 24.628906 34.164062 C 24.773438 34.003906 25.007812 33.953125 25.203125 34.039062 L 29.34375 35.878906 L 35.605469 27.695312 C 35.695312 27.578125 35.835938 27.503906 35.984375 27.5 C 36.132812 27.492188 36.277344 27.554688 36.375 27.664062 L 41.910156 33.804688 L 43.699219 31.804688 L 37 21.175781 L 34.546875 25.265625 C 34.496094 25.351562 34.398438 25.398438 34.300781 25.386719 C 34.199219 25.375 34.117188 25.304688 34.089844 25.210938 L 32.941406 21.386719 C 32.910156 21.285156 32.824219 21.214844 32.71875 21.207031 C 32.617188 21.199219 32.519531 21.257812 32.476562 21.351562 L 30.03125 26.640625 C 29.984375 26.734375 29.886719 26.789062 29.785156 26.78125 C 29.683594 26.773438 29.59375 26.703125 29.566406 26.605469 L 28.941406 24.421875 C 28.910156 24.320312 28.820312 24.246094 28.714844 24.238281 C 28.609375 24.234375 28.511719 24.292969 28.46875 24.390625 L 25.441406 31.316406 C 25.402344 31.398438 25.320312 31.457031 25.230469 31.460938 C 25.136719 31.46875 25.050781 31.421875 25 31.34375 L 22.945312 28.054688 C 22.898438 27.988281 22.820312 27.949219 22.738281 27.949219 C 22.660156 27.949219 22.582031 27.988281 22.535156 28.054688 L 20 31.425781 C 19.949219 31.496094 19.863281 31.53125 19.777344 31.523438 C 19.691406 31.515625 19.613281 31.464844 19.574219 31.386719 L 17.273438 26.785156 L 6.058594 48.785156 C 5.988281 48.9375 5.996094 49.117188 6.085938 49.261719 C 6.175781 49.40625 6.332031 49.496094 6.5 49.5 L 12 49.5 C 11.804688 49.5 11.625 49.382812 11.546875 49.203125 Z M 11.546875 49.203125 "/>
<path style=" stroke:none;fill-rule:nonzero;fill:rgb(3.529412%,20%,34.117647%);fill-opacity:1;" d="M 57.921875 48.730469 L 45.921875 30.230469 C 45.835938 30.097656 45.695312 30.015625 45.539062 30.003906 C 45.382812 29.992188 45.230469 30.050781 45.125 30.171875 L 41.910156 33.804688 L 36.371094 27.664062 C 36.269531 27.554688 36.125 27.492188 35.976562 27.5 C 35.828125 27.503906 35.691406 27.578125 35.601562 27.695312 L 29.34375 35.886719 L 25.203125 34.046875 C 25.007812 33.957031 24.773438 34.007812 24.628906 34.171875 L 11.628906 48.671875 C 11.5 48.816406 11.46875 49.023438 11.550781 49.203125 C 11.628906 49.382812 11.804688 49.496094 12 49.5 L 57.5 49.5 C 57.683594 49.5 57.851562 49.398438 57.9375 49.238281 C 58.027344 49.078125 58.019531 48.882812 57.921875 48.730469 Z M 57.921875 48.730469 "/>
</g>
</svg>
